<svg id="DHL_Logo" xmlns="http://www.w3.org/2000/svg" width="43" height="9.49" viewBox="0 0 43 9.49">
  <path id="Trazado_140" data-name="Trazado 140" d="M43,0V9.49H0V0Z" fill="#fecc00"/>
  <path id="Trazado_141" data-name="Trazado 141" d="M13.864,9.226c-.188.254-.5.7-.694.955-.1.131-.273.37.309.37h3.062l.907-1.233c.563-.764.049-2.353-1.963-2.353H7.562L6.188,8.832h7.488C14.054,8.832,14.049,8.975,13.864,9.226Zm-2.249,1.786c-.582,0-.406-.239-.309-.37.191-.258.511-.7.7-.951s.19-.394-.189-.394H8.391l-2.759,3.75h6.729A4.764,4.764,0,0,0,16.2,11.012Zm4.377,2.034h3.947l1.5-2.035H17.489S15.992,13.046,15.992,13.046ZM26.176,6.965,24.662,9.021H22.9l1.513-2.056H20.468l-2.64,3.586h9.655l2.639-3.586ZM21.7,13.046h3.946l1.5-2.034H23.2S21.7,13.046,21.7,13.046ZM0,11.814v.432H5.5l.318-.432Zm6.406-.8H0v.432H6.087ZM0,13.046H4.908l.316-.43H0Zm37.207-.8H43v-.432H37.525Zm-.588.8H43v-.43H36.935Zm1.5-2.034-.317.432H43v-.432Zm-5.168-.46,2.64-3.586H31.407s-2.642,3.586-2.642,3.586Zm-4.52.46s-.288.394-.429.584c-.5.669-.057,1.45,1.56,1.45H35.9l1.5-2.034H28.427Z" transform="translate(0 -5.261)" fill="#d50029"/>
</svg>
