<?xml version="1.0" standalone="no"?>
<!DOCTYPE svg PUBLIC "-//W3C//DTD SVG 1.1//EN" "http://www.w3.org/Graphics/SVG/1.1/DTD/svg11.dtd">
<svg xmlns="http://www.w3.org/2000/svg">
<metadata>Copyright (C) 2020 by original authors @ fontello.com</metadata>
<defs>
<font id="icons" horiz-adv-x="1000" >
<font-face font-family="icons" font-weight="400" font-stretch="normal" units-per-em="1000" ascent="850" descent="-150" />
<missing-glyph horiz-adv-x="1000" />
<glyph glyph-name="up-open" unicode="&#xe800;" d="M564 280q16-16 16-41t-16-41q-38-38-78 0l-196 188-196-188q-40-38-78 0-16 16-16 41t16 41l234 224q16 16 40 16t40-16z" horiz-adv-x="580" />

<glyph glyph-name="down-open" unicode="&#xe801;" d="M564 422l-234-224q-18-18-40-18t-40 18l-234 224q-16 16-16 41t16 41q38 38 78 0l196-188 196 188q40 38 78 0 16-16 16-41t-16-41z" horiz-adv-x="580" />

<glyph glyph-name="cash" unicode="&#xe802;" d="M922 721l-438 128a35 35 0 0 1-20 0h0l-439-128a35 35 0 0 1-25-34v-383c0-333 446-448 465-453a34 34 0 0 1 18 0c27 7 464 123 464 453v383a35 35 0 0 1-25 34z m-45-417c0-256-344-366-403-383-59 17-404 127-404 383v357l404 117 403-117z m-438 265v-36a105 105 0 0 1 17-209h53a35 35 0 1 0 0-70h-105a35 35 0 1 1 0-70h34v-35a35 35 0 1 1 71 0v35a105 105 0 1 1 0 210h-53a35 35 0 0 0 0 70h105a35 35 0 0 1 0 70h-52v35a35 35 0 1 1-70 0z" horiz-adv-x="947" />

<glyph glyph-name="payment" unicode="&#xe803;" d="M83-63a21 21 0 1 0 15 6 21 21 0 0 0-15-6z m110-87h-193v50h143v257h-143v50h193z m297 51h-264v254l3 6a165 165 0 0 0 70 66 217 217 0 0 0 178 4 520 520 0 0 0 53-25c15-8 28-15 42-20a135 135 0 0 1 18-6 80 80 0 0 0 61-39 118 118 0 0 0 8-54l126 2 65 72a68 68 0 0 0 102-91l-99-110z m-213 50h209l342 55 86 97a18 18 0 0 1-27 25l-80-89-310-5 0 50 112 2a80 80 0 0 1-3 35c-2 4-19 9-28 11a170 170 0 0 0-25 7c-16 7-31 15-46 23a476 476 0 0 1-48 23 167 167 0 0 1-136-3 120 120 0 0 1-46-40z m723 787v54l-159 58-308-158h-266v-373h610v106c8-1 17-1 25-1 5-1 10-1 15-1a252 252 0 0 1 83 15v53l-1 0a206 206 0 0 0-94-18c-9 1-18 1-28 2-16 0-32 0-50-1-24 0-50-2-78-5l-31-3a29 29 0 0 0-8 58l117 20 0 0a74 74 0 0 1 50 34 75 75 0 0 1-63 114h-172l202 104z m-186-96a24 24 0 0 0 13-4 25 25 0 0 0 0-42 24 24 0 0 0-9-3l-116-20a79 79 0 0 1 13-158 73 73 0 0 1 8 1s82 7 104 8v-55h-510v273z" horiz-adv-x="1000" />

<glyph glyph-name="shipping" unicode="&#xe804;" d="M1679 444l-78 181a180 180 0 0 1-166 109h-127v47a70 70 0 0 1-69 69h-884a46 46 0 0 1-47-46 47 47 0 0 1 47-47h857v-342a76 76 0 0 1 77-76h308v-216a16 16 0 0 0-16-16h-57a172 172 0 0 1-148 85 175 175 0 0 1-148-85h-476a172 172 0 0 1-148 85 175 175 0 0 1-148-85h-164a46 46 0 1 1 0-93h141a171 171 0 0 1 342 0h430a171 171 0 0 1 342 0h38a109 109 0 0 1 108 109v249a203 203 0 0 1-14 72z m-1075-501a78 78 0 1 0 79 78 79 79 0 0 0-79-78z m772 0a78 78 0 1 0 79 78 79 79 0 0 0-79-78z m-69 697h126a84 84 0 0 0 79-52l67-157h-272z m-1086-77h328a46 46 0 1 1 0 93h-328a46 46 0 0 1-46-47 47 47 0 0 1 46-46z m-87-178h328a46 46 0 1 1 0 92h-328a46 46 0 0 1-47-46 47 47 0 0 1 47-46z m289-132a46 46 0 0 1-47 46h-330a46 46 0 1 1 0-93h328a45 45 0 0 1 49 47z" horiz-adv-x="1693" />

<glyph glyph-name="delivery-fast" unicode="&#xe805;" d="M775 850h-653a122 122 0 0 1-122-122v-625a122 122 0 0 1 122-122h65a167 167 0 0 1 326 0h430a167 167 0 0 1 326 0h115v360a194 194 0 0 1-26 97l-72 124a151 151 0 0 1-131 75h-259v91a122 122 0 0 1-121 122z m-703-747v625a50 50 0 0 0 50 50h653a50 50 0 0 0 50-50v-675h-312a167 167 0 0 1-326 0h-65a50 50 0 0 0-50 50z m278-182a95 95 0 1 0 95 96 95 95 0 0 0-95-96z m756 0a95 95 0 1 0 95 96 95 95 0 0 0-95-96z m163 132a167 167 0 0 1-326 0h-46v293h414v-293z m-114 512a79 79 0 0 0 68-39l63-109h-389v148z m-703-346a241 241 0 1 1-241 241 241 241 0 0 1 241-241z m0 410a170 170 0 1 0-169-169 170 170 0 0 0 169 169z m-2-212h74a36 36 0 0 1 0 72h-38v59a36 36 0 0 1-72 0v-95a36 36 0 0 1 36-36z" horiz-adv-x="1384" />

<glyph glyph-name="cart" unicode="&#xe806;" d="M42 767h69l105-471a150 150 0 0 1-85-138 142 142 0 0 1 134-149h553a42 42 0 1 1 0 83h-553a61 61 0 0 0-51 66 61 61 0 0 0 51 65h553a42 42 0 0 1 39 28l141 390a42 42 0 0 1-39 56h-747l-27 120a42 42 0 0 1-40 33h-103a42 42 0 0 1 0-83z m857-153l-111-307h-489l-69 307h669z m-600-681a42 42 0 0 1 0-83h53a42 42 0 1 1 0 83z m384 0a42 42 0 0 1 0-83h53a42 42 0 1 1 0 83z" horiz-adv-x="1000" />

<glyph glyph-name="search" unicode="&#xe807;" d="M369 111a369 369 0 0 1 230 81l330-330a42 42 0 1 1 59 59l-329 330a370 370 0 1 1-289-140z m-202 572a286 286 0 1 0 0-405 284 284 0 0 0 0 405z" horiz-adv-x="1000" />

<glyph glyph-name="home" unicode="&#xe808;" d="M69 390l21 18v-516a42 42 0 0 1 42-42h736a42 42 0 0 1 42 42v516l22-18a42 42 0 0 1 53 63l-200 169v159a42 42 0 1 1-83 0v-88l-175 147a42 42 0 0 1-54 0l-458-386a42 42 0 1 1 53-64z m338-457v301h186v-301z m93 821l326-276v-545h-149v343a42 42 0 0 1-42 42h-270a42 42 0 0 1-41-42v-343h-150v545z" horiz-adv-x="1000" />

<glyph glyph-name="delivery" unicode="&#xe809;" d="M1576 298l-288 237a45 45 0 0 1-11 6h0a45 45 0 0 1-15 4h-191v260a45 45 0 0 1-45 45h-981a45 45 0 0 1-45-45v-779a45 45 0 0 1 45-45h149a180 180 0 0 1 346 0h553a180 180 0 0 1 346 0h109a45 45 0 0 1 45 45v237a45 45 0 0 1-17 35z m-360 157v-125h-145v125z m-1123 306h888v-690h-440a177 177 0 0 1-6 20 10 10 0 0 1-3 7 180 180 0 0 1-15 29l-5 6a180 180 0 0 1-15 18l-9 8a180 180 0 0 1-16 13l-11 7a180 180 0 0 1-18 9l-11 5a180 180 0 0 1-21 7l-11 3a168 168 0 0 1-67 0l-10-3a180 180 0 0 1-22-7l-11-5a180 180 0 0 1-19-9l-10-7a180 180 0 0 1-16-14l-8-7a180 180 0 0 1-17-20l-4-5a180 180 0 0 1-15-28 11 11 0 0 0-3-7 180 180 0 0 1-6-20h-102z m277-823a94 94 0 1 1-3 0z m899 0a94 94 0 1 1-3 0z m237 134h-66a177 177 0 0 1-7 19 10 10 0 0 1-2 8 180 180 0 0 1-15 28l-5 6a180 180 0 0 1-16 19l-9 7a180 180 0 0 1-16 13l-10 7a180 180 0 0 1-18 10l-11 5a180 180 0 0 1-22 7l-10 2a168 168 0 0 1-67 0l-11-2a180 180 0 0 1-21-7l-12-5a180 180 0 0 1-18-10l-10-7a180 180 0 0 1-17-13l-8-7a180 180 0 0 1-16-21l-4-4a180 180 0 0 1-16-29 11 11 0 0 0-2-7 180 180 0 0 1-7-19h-20v168h188a45 45 0 0 1 45 45v120l199-163z" horiz-adv-x="1592" />

<glyph glyph-name="avatar" unicode="&#xe80a;" d="M902 123l-221 90a31 31 0 0 0-19 29v52a29 29 0 0 0 6 18 435 435 0 0 1 90 265c0 163-103 273-258 273s-258-110-258-273a435 435 0 0 1 90-265 29 29 0 0 0 6-18v-52a31 31 0 0 0-19-29l-221-90a156 156 0 0 1-98-145v-86a42 42 0 0 1 42-42h916a42 42 0 0 1 42 42v86a156 156 0 0 1-98 145z m15-190h-834v45a73 73 0 0 0 46 67l221 91a114 114 0 0 1 72 106v52a113 113 0 0 1-25 70 354 354 0 0 0-72 213c0 140 90 190 175 190s175-50 175-190a354 354 0 0 0-72-213 113 113 0 0 1-25-70v-52a114 114 0 0 1 72-106l221-91a73 73 0 0 0 46-67z" horiz-adv-x="1000" />

<glyph glyph-name="left" unicode="&#xe80b;" d="M500-150l-417 417-83 83 83 83 417 417 83-83-358-358h926v-117h-926l358-359z" horiz-adv-x="1151" />

<glyph glyph-name="happy" unicode="&#xe80c;" d="M333 475a42 42 0 0 0 42-42 42 42 0 0 1 83 0 125 125 0 0 1-250 0 42 42 0 0 1 84 0 42 42 0 0 0 41 42z m334 83a125 125 0 0 1-125-125 42 42 0 0 1 83 0 42 42 0 1 0 83 0 42 42 0 0 1 84 0 125 125 0 0 1-125 125z m-167 292a500 500 0 1 1 500-500 500 500 0 0 1-500 500z m0-917a417 417 0 1 0 417 417 417 417 0 0 0-417-417z m137 322l-24-25a164 164 0 0 0-226 0l-24 25a42 42 0 0 1-59-59l24-25a243 243 0 0 1 344 0l25 25a42 42 0 1 1-59 59z" horiz-adv-x="1000" />

<glyph glyph-name="materials" unicode="&#xe80d;" d="M988 850h-667v-333h-321v-667h667v333h321v667z m-51-142l-269-269v78h-99l278 279-2 2h92v-90z m-321-524c-45 8-114 16-139-68a549 549 0 0 0-79-137 443 443 0 0 1-47-77h-82a179 179 0 0 0 37 110 176 176 0 0 0 39 33 178 178 0 0 1 89 135 258 258 0 0 1-17 147 262 262 0 0 0-19 139h76c2-11 4-22 6-34 11-65 24-147 112-192 4-2 8-4 10-5a37 37 0 0 1 14-9v-42z m-423-46a238 238 0 0 0 5 79 220 220 0 0 0 36 72 298 298 0 0 1 58 177h54a312 312 0 0 1 22-157 208 208 0 0 0 15-121 128 128 0 0 0-67-100 219 219 0 0 1-50-43 230 230 0 0 1-49-143h-54a633 633 0 0 1 30 236z m423 148l-1 0c-64 33-74 92-84 155-1 8-3 16-4 25h89z m-243 278l235 234h168l-281-280h-122z m161 234l-161-161v161z m-401-332a812 812 0 0 0-49-134c-10-26-21-52-32-79v213z m-81-397a1109 1109 0 0 0 80 242 740 740 0 0 1 53 154h55a247 247 0 0 0-49-147 269 269 0 0 1-43-88 287 287 0 0 1-7-95 606 606 0 0 0-33-233h-56v167z m357-167c9 14 22 32 32 47a584 584 0 0 1 86 153c11 39 32 39 85 30l4 0v-230z m258 463l270 269v-175l-225-224h-45v130z m118-130l152 151v-151z" horiz-adv-x="988" />

<glyph glyph-name="heart" unicode="&#xe80e;" d="M708 850a281 281 0 0 1-208-94 281 281 0 0 1-208 94 306 306 0 0 1-292-317c0-255 453-656 473-673a42 42 0 0 1 54 0c20 16 473 404 473 672a306 306 0 0 1-292 318z m-208-903c-137 126-417 417-417 586a223 223 0 0 0 209 233 204 204 0 0 0 173-101 42 42 0 0 1 71 0 204 204 0 0 0 172 101 223 223 0 0 0 209-233c0-179-279-463-417-586z" horiz-adv-x="1000" />

<glyph glyph-name="right" unicode="&#xe811;" d="M651 850l417-417 83-83-83-83-417-417-83 83 358 358-926 0 0 118 926 0-358 358z" horiz-adv-x="1151" />

<glyph glyph-name="card-payment" unicode="&#xe815;" d="M1688 694h-222a58 58 0 0 1-58-58v-47h-98l-164 166a323 323 0 0 1-458 0l-136-136h-494a58 58 0 0 1-58-58v-272h0v-381a58 58 0 0 1 58-58h993a58 58 0 0 1 58 58v221h88a233 233 0 0 1 175-81h34v-46a58 58 0 0 1 58-59h224a58 58 0 0 1 58 59v634a58 58 0 0 1-58 58z m-1113-192h419v-93h-152a140 140 0 0 1-116-64h-610v157z m419-539h-878v268h593a140 140 0 0 1 133-99h151z m381 201a116 116 0 0 0-99 54 58 58 0 0 1-49 28h-385a24 24 0 1 0 0 47h384a58 58 0 0 1 0 116h-116v151a58 58 0 0 1-58 58h-335l54 54a212 212 0 0 0 291 0l182-182a58 58 0 0 1 41-17h122v-309z m255-104h-106v518h106z" horiz-adv-x="1746" />

<glyph glyph-name="filters" unicode="&#xe816;" d="M456 850a236 236 0 0 1-229-182h-173a54 54 0 1 1 0-108h173a236 236 0 0 1 458 0h670a54 54 0 1 1 0 108h-670a236 236 0 0 1-229 182z m0-364a127 127 0 1 0 127 127 127 127 0 0 0-127-127z m499-164a236 236 0 0 1-229-183h-672a54 54 0 1 1 0-108h670a236 236 0 0 1 458 0h173a54 54 0 0 1 0 108h-173a236 236 0 0 1-227 183z m0-363a127 127 0 1 0 127 127 127 127 0 0 0-127-127z" horiz-adv-x="1409" />

<glyph glyph-name="send" unicode="&#xe817;" d="M999 842a28 28 0 0 1-31 6l-951-414a28 28 0 0 1 4-53l405-112 105-398a28 28 0 0 1 25-21h2a28 28 0 0 1 26 16l421 945a28 28 0 0 1-6 31z" horiz-adv-x="1007" />

<glyph glyph-name="cancel" unicode="&#xe818;" d="M979 829a72 72 0 0 1-103 0l-376-376-376 376a73 73 0 0 1-103-103l376-376-376-376a73 73 0 0 1 103-103l376 377 376-377a73 73 0 1 1 103 103l-377 376 377 376a73 73 0 0 1 0 103z" horiz-adv-x="1000" />

<glyph glyph-name="twitter" unicode="&#xf099;" d="M904 622q-37-54-90-93 0-8 0-23 0-73-21-145t-64-139-103-117-144-82-181-30q-151 0-276 81 19-2 43-2 126 0 224 77-59 1-105 36t-64 89q19-3 34-3 24 0 48 6-63 13-104 62t-41 115v2q38-21 82-23-37 25-59 64t-22 86q0 49 25 91 68-83 164-133t208-55q-5 21-5 41 0 75 53 127t127 53q79 0 132-57 61 12 115 44-21-64-80-100 52 6 104 28z" horiz-adv-x="928.6" />

<glyph glyph-name="facebook" unicode="&#xf09a;" d="M535 843v-147h-87q-48 0-65-20t-17-60v-106h164l-22-165h-142v-424h-171v424h-142v165h142v122q0 104 58 161t155 57q82 0 127-7z" horiz-adv-x="571.4" />

<glyph glyph-name="linkedin" unicode="&#xf0e1;" d="M195 501v-553h-184v553h184z m12 171q0-41-29-68t-75-27h-1q-46 0-74 27t-28 68q0 41 29 68t75 27 74-27 29-68z m650-407v-317h-183v296q0 59-23 92t-71 33q-35 0-58-19t-36-48q-6-17-6-45v-309h-184q1 223 1 361t0 165l-1 27h184v-80h-1q11 18 23 31t31 29 49 24 64 9q95 0 153-63t58-186z" horiz-adv-x="857.1" />

<glyph glyph-name="youtube-play" unicode="&#xf16a;" d="M397 221l270 139-270 141v-280z m103 481q94 0 181-3t128-5l41-2q0 0 9-1t13-2 13-2 16-5 16-7 17-11 16-15q4-3 9-10t16-33 15-56q4-36 7-76t3-64v-98q1-81-10-162-4-30-14-55t-18-35l-8-9q-7-8-16-15t-17-10-16-7-16-5-13-2-13-2-9-1q-140-11-350-11-115 2-201 4t-111 4l-28 3-20 2q-20 3-30 5t-29 12-31 23q-4 3-9 10t-16 33-15 56q-4 36-7 76t-3 64v98q-1 81 10 162 4 31 14 55t18 35l8 9q8 9 16 15t17 11 16 7 16 5 13 2 13 2 9 1q140 10 350 10z" horiz-adv-x="1000" />

<glyph glyph-name="instagram" unicode="&#xf16d;" d="M571 350q0 59-41 101t-101 42-101-42-42-101 42-101 101-42 101 42 41 101z m77 0q0-91-64-156t-155-64-156 64-64 156 64 156 156 64 155-64 64-156z m61 229q0-21-15-36t-37-15-36 15-15 36 15 36 36 15 37-15 15-36z m-280 123q-4 0-43 0t-59 0-54-2-57-5-40-11q-28-11-49-32t-33-49q-6-16-10-40t-6-58-1-53 0-59 0-43 0-43 0-59 1-53 6-58 10-40q12-28 33-49t49-32q16-6 40-11t57-5 54-2 59 0 43 0 42 0 59 0 54 2 58 5 39 11q28 11 50 32t32 49q6 16 10 40t6 58 1 53 0 59 0 43 0 43 0 59-1 53-6 58-10 40q-11 28-32 49t-50 32q-16 6-39 11t-58 5-54 2-59 0-42 0z m428-352q0-128-3-177-5-116-69-180t-179-69q-50-3-177-3t-177 3q-116 6-180 69t-69 180q-3 49-3 177t3 177q5 116 69 180t180 69q49 3 177 3t177-3q116-6 179-69t69-180q3-49 3-177z" horiz-adv-x="857.1" />
</font>
</defs>
</svg>
